<?xml version="1.0" standalone="no"?>
<!DOCTYPE svg PUBLIC "-//W3C//DTD SVG 20010904//EN"
 "http://www.w3.org/TR/2001/REC-SVG-20010904/DTD/svg10.dtd">
<svg version="1.0" xmlns="http://www.w3.org/2000/svg"
 width="1600.000000pt" height="1600.000000pt" viewBox="0 0 1600.000000 1600.000000"
 preserveAspectRatio="xMidYMid meet">
<metadata>
Created by potrace 1.14, written by Peter Selinger 2001-2017
</metadata>
<g transform="translate(0.000000,1600.000000) scale(0.100000,-0.100000)"
fill="#000000" stroke="none">
<path d="M7720 15993 c-1563 -61 -3016 -547 -4285 -1432 -365 -255 -640 -482
-1033 -856 -148 -140 -481 -510 -645 -717 -633 -796 -1101 -1688 -1401 -2668
-174 -569 -292 -1237 -327 -1860 -13 -233 -6 -906 11 -1090 72 -765 201 -1368
434 -2031 681 -1936 2121 -3564 3966 -4483 975 -486 1990 -756 3095 -826 205
-13 731 -13 950 0 488 29 1048 117 1515 237 1897 488 3554 1663 4648 3296 814
1215 1265 2579 1341 4062 13 237 5 738 -14 995 -40 526 -144 1104 -290 1610
-617 2133 -2107 3924 -4093 4920 -1010 506 -2077 785 -3207 839 -159 8 -517
10 -665 4z m760 -547 c19 -2 82 -7 140 -11 138 -8 459 -48 646 -80 1755 -302
3331 -1213 4474 -2586 53 -63 105 -126 115 -140 204 -268 361 -491 502 -716
169 -267 385 -691 540 -1058 243 -574 448 -1357 508 -1940 4 -33 8 -67 11 -75
13 -50 35 -432 41 -705 15 -855 -110 -1684 -373 -2471 -288 -861 -711 -1635
-1277 -2338 -557 -690 -1231 -1273 -2008 -1736 -218 -130 -531 -291 -779 -400
-638 -280 -1283 -466 -1940 -559 -417 -59 -523 -65 -1065 -66 -527 0 -583 3
-970 51 -1239 154 -2475 656 -3500 1422 -1091 816 -1952 1936 -2455 3192 -236
589 -397 1208 -474 1815 -46 362 -51 456 -51 970 1 448 3 522 23 710 56 531
130 910 269 1390 134 466 385 1069 611 1470 25 44 59 105 75 135 17 30 75 127
130 215 520 836 1191 1553 1982 2122 114 81 388 265 480 320 795 480 1642 803
2525 962 332 60 533 84 930 110 122 9 821 6 890 -3z"/>
<path d="M7645 14253 c-83 -7 -325 -45 -438 -69 -113 -24 -427 -108 -717 -192
-74 -22 -178 -47 -230 -57 -364 -67 -540 -115 -705 -194 -144 -69 -545 -327
-716 -461 -52 -42 -144 -107 -203 -145 -363 -237 -595 -394 -691 -471 -226
-180 -578 -559 -720 -774 -34 -52 -98 -162 -142 -245 -44 -82 -125 -213 -180
-290 -126 -175 -232 -346 -336 -540 -44 -82 -137 -249 -206 -370 -160 -282
-241 -452 -295 -617 -115 -352 -170 -681 -186 -1128 -11 -285 -13 -320 -46
-540 -32 -217 -40 -400 -25 -580 23 -270 87 -597 164 -830 45 -138 63 -221 87
-420 30 -237 53 -312 180 -585 104 -223 195 -461 245 -639 34 -124 148 -275
443 -594 139 -149 167 -190 196 -285 30 -99 106 -250 166 -332 92 -126 153
-184 449 -429 168 -139 358 -302 421 -362 236 -223 346 -316 472 -398 178
-116 334 -168 503 -170 100 0 114 2 161 26 119 62 157 142 225 467 48 232 71
294 156 424 l64 99 -216 224 c-305 315 -405 402 -555 484 -51 27 -95 50 -98
50 -15 0 -136 97 -173 138 -50 56 -346 461 -492 675 -53 78 -134 205 -179 282
-82 142 -171 288 -258 425 -198 310 -263 478 -281 725 -16 228 -37 356 -99
615 -110 458 -105 408 -103 1010 3 674 15 829 83 1085 60 227 133 378 460 950
47 83 127 233 178 335 104 208 144 266 297 430 158 168 257 290 342 420 41 63
92 140 112 170 58 88 157 158 406 290 193 103 273 155 525 345 295 223 396
278 730 395 74 26 203 75 285 108 189 76 226 88 355 119 97 23 132 26 457 33
194 5 357 11 362 15 6 3 33 79 62 168 28 89 57 168 64 176 8 8 23 11 38 7 27
-6 29 -12 107 -273 22 -72 22 -73 56 -73 19 0 112 -5 207 -10 430 -26 843
-103 1182 -220 145 -50 211 -84 381 -195 118 -78 225 -134 649 -340 354 -172
589 -330 784 -525 128 -129 200 -239 391 -605 146 -280 208 -379 341 -545 116
-146 157 -207 204 -299 66 -132 84 -206 136 -566 51 -355 75 -441 212 -765 36
-85 78 -195 94 -245 27 -88 28 -94 26 -325 -3 -557 -21 -1101 -42 -1235 -36
-236 -98 -462 -187 -672 -40 -97 -70 -156 -197 -393 -25 -47 -73 -152 -107
-235 -78 -187 -118 -268 -184 -370 -119 -182 -272 -341 -570 -590 -322 -268
-583 -522 -741 -720 -163 -205 -275 -294 -440 -351 -44 -15 -82 -29 -84 -30
-2 -2 19 -24 48 -50 28 -25 56 -55 62 -66 6 -11 26 -127 45 -258 46 -327 90
-511 138 -585 39 -60 164 -118 290 -136 117 -16 310 10 421 57 155 65 325 229
534 519 104 144 190 238 280 304 67 50 276 181 287 181 4 0 65 39 138 87 220
147 371 316 523 588 45 81 203 401 203 412 0 2 27 57 59 122 73 145 118 215
260 409 204 278 261 377 357 624 125 319 163 527 179 973 9 252 16 385 26 490
45 485 60 1029 35 1282 -29 292 -93 545 -208 823 -65 157 -126 322 -152 414
-25 83 -39 155 -86 426 -73 416 -171 662 -398 995 -110 162 -190 253 -333 381
-130 117 -178 168 -219 239 -12 22 -48 83 -78 135 -260 450 -397 603 -722 806
-102 64 -171 104 -405 236 -209 118 -218 125 -565 379 -188 138 -301 210 -450
287 -310 161 -542 223 -1100 293 -292 36 -439 63 -724 129 -251 59 -403 85
-599 105 -128 13 -359 17 -462 8z m375 -400 c0 -4 -11 -16 -24 -28 -14 -11
-72 -98 -130 -194 l-105 -174 5 -66 c11 -149 15 -171 31 -171 8 0 13 -6 11
-12 -5 -13 -184 -35 -195 -24 -3 3 0 12 7 21 9 11 11 43 5 129 l-7 113 -131
161 c-74 90 -144 166 -159 173 -56 24 -37 30 149 44 43 3 74 1 78 -5 3 -6 -1
-13 -9 -16 -9 -3 -16 -12 -16 -19 0 -11 157 -215 165 -215 7 0 145 228 145
239 0 6 -7 11 -15 11 -8 0 -15 7 -15 14 0 11 15 16 53 19 102 7 157 7 157 0z
m-1064 -163 c22 -80 18 -104 -12 -79 -13 10 -33 8 -112 -11 -53 -13 -100 -26
-104 -29 -12 -10 109 -474 126 -487 29 -21 16 -30 -75 -50 l-90 -21 5 23 c5
19 -41 224 -104 465 l-10 36 -72 -18 c-129 -32 -148 -39 -148 -55 0 -9 -5 -14
-12 -12 -13 5 -55 154 -46 163 3 4 15 1 25 -6 17 -10 62 -1 269 50 302 75 314
79 314 97 0 8 6 14 13 14 7 0 21 -34 33 -80z m1642 -45 c89 -75 4 -202 -102
-154 -32 15 -59 70 -50 104 9 34 59 75 94 75 16 0 42 -11 58 -25z m1007 -5
c129 -37 242 -133 287 -243 51 -126 -4 -286 -123 -362 -190 -122 -514 -26
-616 184 -59 120 -28 271 74 361 87 76 237 100 378 60z m-3752 -246 c3 -3 1
-14 -4 -23 -16 -24 226 -541 253 -541 10 0 18 -4 18 -9 0 -9 -180 -94 -187
-87 -2 2 1 12 7 23 10 15 -3 50 -80 213 -50 107 -105 225 -122 263 -21 47 -36
67 -49 67 -42 0 -23 20 59 58 91 44 95 46 105 36z m4848 -194 c194 -103 269
-138 286 -134 13 4 23 2 23 -5 0 -12 -70 -141 -76 -141 -3 0 -8 11 -13 23 -7
17 -59 50 -188 118 -98 52 -182 95 -188 97 -6 1 -25 -27 -42 -62 l-32 -65 32
-19 c94 -57 203 -106 230 -104 l29 2 -43 -80 c-24 -44 -48 -79 -54 -77 -5 2
-9 12 -7 22 3 16 -24 55 -38 55 -4 0 -48 23 -99 50 -51 28 -96 50 -100 50 -4
0 -33 -47 -64 -106 -48 -89 -55 -108 -45 -124 22 -35 1 -31 -91 17 -86 45
-108 68 -66 68 14 0 53 64 156 255 81 152 133 259 128 265 -9 9 -13 35 -5 35
2 0 122 -63 267 -140z m-5519 -263 c6 -42 9 -79 7 -82 -3 -2 -19 0 -35 7 -41
15 -124 -10 -200 -61 -93 -62 -136 -137 -99 -174 34 -34 75 -21 203 65 175
118 269 128 346 38 39 -47 52 -102 37 -158 -32 -126 -194 -274 -350 -323 -36
-10 -71 -24 -78 -31 -7 -6 -16 -8 -19 -5 -9 9 -42 146 -37 151 3 3 15 1 25 -5
49 -26 194 39 273 121 59 62 74 98 56 136 -20 44 -67 33 -177 -42 -163 -110
-231 -136 -297 -115 -34 12 -86 59 -106 98 -17 34 -13 123 8 169 42 93 181
203 309 244 37 12 76 31 87 41 10 10 23 15 27 11 4 -4 13 -42 20 -85z m6087
-371 c35 -35 33 -101 -3 -133 -29 -25 -83 -31 -118 -12 -11 6 -26 26 -34 44
-40 96 81 174 155 101z m791 -292 c113 -54 203 -150 274 -292 20 -39 41 -72
46 -72 6 0 10 -4 10 -9 0 -9 -59 -26 -132 -36 l-47 -7 11 29 c10 26 7 39 -19
94 -41 86 -92 142 -160 176 -161 78 -326 -28 -311 -201 2 -28 13 -69 23 -91
52 -109 254 -232 303 -183 6 6 14 10 16 7 7 -7 -26 -149 -35 -149 -24 0 -206
84 -247 113 -145 108 -220 272 -187 413 15 67 44 113 106 168 65 59 115 76
209 73 60 -2 88 -9 140 -33z m-7752 -31 c20 -17 45 -44 56 -62 25 -43 24 -116
-2 -168 l-21 -40 147 -21 c100 -14 151 -17 159 -10 7 5 17 7 23 3 11 -7 -136
-175 -152 -175 -5 0 -8 10 -6 23 3 21 -3 23 -112 39 -169 24 -157 27 -221 -45
l-56 -63 84 -79 c74 -68 87 -77 104 -67 43 27 24 -12 -42 -82 -74 -79 -93 -92
-84 -53 5 20 -21 48 -187 203 -252 233 -235 219 -252 205 -10 -8 -16 -9 -21
-1 -8 12 301 347 353 384 56 38 82 46 140 43 40 -3 61 -11 90 -34z m-890 -853
c66 -42 75 -57 40 -62 -16 -2 -52 -49 -135 -178 -62 -96 -113 -177 -113 -180
0 -12 122 -82 129 -74 21 23 141 219 141 230 0 7 -4 16 -10 19 -13 8 -13 25 0
25 19 0 161 -101 155 -110 -3 -5 -12 -7 -20 -3 -9 3 -22 0 -30 -7 -18 -15
-145 -207 -145 -219 0 -8 122 -91 134 -91 2 0 56 81 120 179 101 154 116 183
110 207 -9 34 2 31 86 -26 55 -37 81 -70 45 -57 -19 8 -23 2 -200 -271 -135
-209 -170 -253 -170 -212 0 21 -485 331 -507 324 -33 -10 -36 -15 159 283 127
195 141 221 136 246 -6 25 7 21 75 -23z m9436 -118 c56 -89 59 -98 25 -94 -25
3 -36 -14 -183 -269 -86 -149 -156 -282 -156 -295 0 -42 -18 -27 -75 61 -59
92 -66 110 -36 100 20 -6 26 0 64 67 l27 46 -83 126 -82 127 -50 -6 c-69 -9
-85 -14 -85 -30 0 -8 -4 -16 -9 -19 -10 -7 -104 131 -97 143 3 5 16 6 29 4 20
-4 532 57 610 73 17 4 27 12 27 23 0 21 11 34 20 24 4 -5 28 -41 54 -81z m461
-837 c21 -53 36 -98 32 -101 -3 -3 -14 0 -25 7 -17 11 -50 0 -238 -76 -121
-49 -223 -92 -228 -96 -8 -7 122 -342 150 -386 8 -13 21 -23 30 -23 35 0 4
-25 -64 -52 -75 -30 -99 -30 -81 0 7 13 -16 81 -105 299 -63 155 -112 284
-108 287 3 3 13 -1 22 -9 15 -13 44 -4 286 94 223 90 270 112 272 130 6 39 19
22 57 -74z m-10485 57 c0 -19 10 -30 150 -177 257 -271 282 -295 301 -295 10
0 19 -4 19 -10 0 -10 -59 -162 -66 -169 -2 -2 -11 2 -19 9 -12 10 -47 11 -153
6 -75 -4 -215 -11 -310 -15 -144 -8 -177 -12 -193 -27 -38 -34 -37 0 2 95 21
51 41 96 43 99 3 3 13 -5 23 -16 18 -21 22 -22 153 -12 74 5 172 9 217 10 45
0 84 4 87 9 3 5 -65 84 -150 175 -147 156 -158 166 -174 151 -10 -9 -21 -12
-24 -7 -5 8 8 46 60 170 14 34 34 36 34 4z m10825 -1056 c24 -89 24 -125 -1
-92 -12 17 -21 16 -146 -18 -73 -20 -198 -53 -278 -74 -118 -32 -147 -43 -155
-60 -14 -32 -23 -27 -35 21 -6 23 -18 66 -26 95 -16 57 -10 87 12 57 12 -17
25 -14 221 38 114 31 239 64 277 74 49 13 73 25 84 42 9 13 17 20 19 15 2 -5
14 -49 28 -98z m-11215 -1 c0 -9 6 -18 13 -21 7 -2 135 -33 286 -68 239 -55
275 -61 287 -48 25 25 27 6 9 -82 -22 -107 -28 -116 -52 -89 -13 15 -52 29
-138 48 -66 15 -167 38 -225 51 -192 45 -213 49 -218 36 -2 -7 -9 -12 -16 -12
-9 0 -7 25 10 98 12 53 23 98 23 100 3 10 21 -1 21 -13z m11342 -736 c4 -46
14 -180 22 -297 13 -185 17 -216 33 -227 26 -19 15 -24 -70 -31 -64 -6 -77 -4
-77 8 0 7 5 19 10 24 9 9 0 225 -16 382 l-5 52 -72 -6 c-40 -4 -73 -8 -75 -9
-1 -1 2 -62 8 -135 7 -100 14 -138 26 -152 10 -10 15 -20 13 -22 -2 -2 -43 -6
-91 -10 -72 -5 -88 -4 -88 8 0 7 9 16 21 19 20 5 21 10 15 104 -4 54 -9 118
-12 142 l-6 43 -81 -6 c-143 -12 -166 -17 -172 -37 -11 -34 -25 -20 -25 26 0
25 -1 47 -2 50 -1 2 -5 29 -8 60 -6 56 5 76 26 47 10 -14 41 -14 285 2 151 9
282 19 292 22 9 3 17 12 17 21 0 8 6 13 13 11 7 -3 15 -36 19 -89z m-11460
-49 c6 -18 598 -39 598 -21 0 6 7 11 15 11 13 0 14 -15 9 -97 -4 -54 -8 -100
-10 -102 -2 -2 -10 1 -17 7 -11 9 -30 -3 -88 -55 -85 -76 -208 -185 -289 -257
-30 -27 -56 -53 -58 -56 -1 -4 89 -10 200 -13 180 -6 204 -5 215 9 22 30 32 5
26 -74 -6 -99 -10 -113 -26 -91 -11 14 -43 18 -202 23 -105 3 -236 9 -292 12
-72 4 -103 3 -103 -5 0 -6 -7 -11 -16 -11 -13 0 -15 14 -13 87 3 113 6 124 33
118 21 -5 25 -2 354 295 l63 57 -83 6 c-46 4 -136 7 -201 7 -95 0 -119 -3
-123 -15 -4 -8 -10 -15 -16 -15 -9 0 -9 118 0 166 4 24 18 32 24 14z m11258
-872 c113 -35 191 -135 221 -287 38 -197 -78 -426 -244 -481 -59 -19 -173 -9
-230 20 -144 73 -220 278 -172 463 59 228 231 343 425 285z m-10762 -324 c44
-9 106 -65 132 -121 58 -124 76 -347 34 -428 -37 -71 -85 -91 -305 -131 -107
-19 -204 -37 -215 -39 -12 -3 -24 -15 -27 -27 -5 -16 -9 -20 -17 -12 -13 13
-45 192 -36 201 3 3 14 -1 23 -9 10 -9 23 -14 28 -12 6 2 90 17 188 34 98 17
193 36 211 44 49 20 70 73 62 153 -12 118 -49 193 -105 214 -18 7 -82 0 -230
-27 -113 -20 -209 -38 -213 -41 -5 -2 -8 -11 -8 -19 0 -25 -18 -15 -24 14 -32
163 -32 172 1 152 14 -8 61 -3 203 23 192 36 246 41 298 31z m10272 -792 c0
-24 544 -202 562 -184 37 37 30 -4 -37 -210 -83 -256 -98 -291 -154 -341 -41
-37 -60 -42 -131 -38 -91 6 -160 85 -160 183 0 26 -2 48 -5 48 -2 0 -24 -6
-47 -14 -24 -8 -83 -27 -133 -41 -54 -16 -96 -35 -106 -47 -30 -39 -29 -1 4
102 32 103 50 129 60 91 5 -20 6 -20 83 5 44 13 102 31 131 40 l52 15 26 80
c15 44 24 83 20 87 -3 4 -52 21 -108 39 -91 29 -103 31 -114 17 -37 -49 -20
46 32 184 6 18 25 5 25 -16z m-10186 -337 c53 -35 57 -106 9 -151 -59 -54
-157 -9 -157 72 0 71 89 118 148 79z m411 -464 c-4 -14 37 -95 144 -280 83
-143 151 -263 151 -267 0 -3 -10 -4 -21 -1 -16 4 -87 -32 -258 -130 -249 -143
-274 -160 -265 -175 4 -6 -1 -8 -10 -6 -9 2 -79 111 -160 253 -108 187 -149
251 -165 253 -34 5 -25 19 40 57 78 45 85 46 81 13 -2 -19 24 -75 94 -195 53
-92 102 -173 108 -180 8 -9 26 -3 73 26 l61 37 -60 104 c-72 127 -83 139 -110
132 -45 -11 -10 24 66 67 70 40 108 49 78 19 -20 -20 -14 -38 54 -155 l66
-114 57 32 c31 17 63 37 72 43 15 10 4 33 -90 196 -82 143 -112 186 -129 188
-37 6 -25 25 41 64 72 42 91 46 82 19z m9420 -251 c15 -29 454 -314 488 -315
15 -1 30 -4 33 -8 5 -5 -82 -143 -107 -171 -6 -6 -14 -3 -21 7 -12 15 -23 14
-153 -12 -77 -16 -195 -38 -262 -51 -68 -12 -123 -25 -123 -29 1 -3 73 -53
162 -110 134 -85 165 -101 180 -92 35 21 27 -9 -19 -83 -27 -41 -52 -75 -56
-75 -5 -1 -11 8 -14 19 -8 29 -479 333 -504 325 -29 -10 -23 7 33 95 44 69 54
79 64 66 6 -9 20 -16 30 -16 26 1 524 97 530 102 2 3 -73 56 -167 117 -130 85
-174 109 -184 101 -9 -7 -15 -8 -19 -1 -7 11 79 151 92 151 4 0 12 -9 17 -20z
m-8795 -750 c30 -39 54 -74 52 -78 -2 -4 -12 -6 -22 -4 -17 3 -116 -68 -189
-134 -11 -10 7 -36 100 -150 61 -77 118 -145 125 -153 11 -12 27 -3 103 59 53
43 91 81 91 91 0 36 18 27 69 -36 63 -79 71 -96 43 -93 -27 4 -473 -357 -466
-376 3 -8 1 -17 -5 -20 -5 -4 -35 25 -65 62 -56 69 -70 99 -41 88 12 -4 101
58 184 130 5 4 -47 71 -162 210 l-83 102 -80 -65 c-43 -35 -81 -72 -82 -81 -2
-9 -7 -21 -11 -25 -11 -11 -124 130 -116 143 3 6 11 8 16 5 10 -7 51 24 294
222 94 76 171 144 171 151 4 36 13 30 74 -48z m8105 -210 c-7 -24 405 -395
441 -395 13 -1 26 -3 29 -6 7 -8 -125 -155 -134 -149 -3 3 -5 12 -4 22 2 14
-68 81 -384 361 -26 23 -50 37 -62 35 -34 -5 -26 13 40 87 61 69 87 85 74 45z
m-420 -430 c-6 -18 140 -608 153 -622 4 -3 18 -8 32 -10 22 -3 16 -10 -55 -70
-43 -38 -82 -68 -86 -68 -4 0 -9 12 -11 27 -3 25 -22 35 -282 145 -153 65
-291 118 -307 118 -15 0 -30 4 -33 9 -6 10 146 141 164 141 7 0 10 -7 6 -15
-6 -17 18 -35 81 -60 l42 -17 115 97 c111 94 114 97 106 128 -4 18 -11 45 -14
60 -4 18 -16 31 -33 38 -30 11 -32 10 57 82 55 46 76 51 65 17z m-6790 -296
c39 -31 72 -57 74 -60 2 -2 -7 -8 -21 -13 -14 -5 -40 -29 -59 -53 -19 -23 -87
-108 -151 -187 -65 -80 -118 -147 -118 -150 1 -3 37 -35 82 -71 54 -43 88 -64
104 -62 13 1 24 -2 24 -6 0 -12 -100 -132 -110 -132 -6 0 -10 10 -10 23 0 18
-45 60 -202 188 -240 195 -244 198 -269 192 -31 -8 -22 12 31 76 47 57 79 79
67 47 -8 -19 7 -36 93 -105 58 -48 77 -58 86 -48 6 6 78 94 158 195 114 141
146 187 141 202 -10 31 4 24 80 -36z m6063 -559 c39 -32 48 -74 28 -114 -20
-37 -44 -51 -89 -51 -98 0 -123 143 -32 181 36 14 63 10 93 -16z m-5709 -10
c57 -29 64 -104 14 -151 -57 -53 -153 -9 -153 71 0 27 8 44 29 66 33 32 67 37
110 14z"/>
<path d="M9395 13528 c-81 -28 -134 -103 -135 -187 0 -133 144 -248 300 -239
123 7 200 73 208 177 2 32 -1 75 -8 95 -15 47 -107 130 -166 150 -53 18 -153
20 -199 4z"/>
<path d="M4026 12028 l-110 -111 62 -59 c35 -32 67 -58 72 -58 13 0 172 176
193 213 23 44 21 73 -8 102 -17 18 -35 25 -62 25 -34 0 -46 -9 -147 -112z"/>
<path d="M12580 11172 c-63 -7 -117 -15 -119 -18 -2 -2 22 -43 53 -90 52 -78
59 -84 70 -68 45 67 118 185 115 187 -2 2 -56 -3 -119 -11z"/>
<path d="M13404 7641 c-179 -82 -196 -398 -25 -486 103 -52 218 -7 279 109 23
44 27 63 27 141 0 73 -4 98 -22 130 -57 107 -162 150 -259 106z"/>
<path d="M13356 6402 c-2 -4 -20 -58 -40 -119 -45 -141 -48 -202 -10 -232 72
-57 126 -7 180 166 20 65 37 122 38 127 1 10 -162 67 -168 58z"/>
<path d="M11505 3827 c-38 -33 -70 -65 -70 -69 0 -5 46 -31 103 -58 56 -27
102 -44 102 -38 0 25 -52 228 -58 227 -4 0 -38 -28 -77 -62z"/>
<path d="M6668 10433 c6 -2 18 -2 25 0 6 3 1 5 -13 5 -14 0 -19 -2 -12 -5z"/>
<path d="M7328 9993 c6 -2 18 -2 25 0 6 3 1 5 -13 5 -14 0 -19 -2 -12 -5z"/>
<path d="M10168 9543 c7 -3 16 -2 19 1 4 3 -2 6 -13 5 -11 0 -14 -3 -6 -6z"/>
<path d="M7328 9363 c6 -2 18 -2 25 0 6 3 1 5 -13 5 -14 0 -19 -2 -12 -5z"/>
<path d="M6483 9313 c9 -2 23 -2 30 0 6 3 -1 5 -18 5 -16 0 -22 -2 -12 -5z"/>
<path d="M6778 9293 c7 -3 16 -2 19 1 4 3 -2 6 -13 5 -11 0 -14 -3 -6 -6z"/>
<path d="M7413 8493 c20 -2 54 -2 75 0 20 2 3 4 -38 4 -41 0 -58 -2 -37 -4z"/>
<path d="M6203 8383 c9 -2 23 -2 30 0 6 3 -1 5 -18 5 -16 0 -22 -2 -12 -5z"/>
<path d="M6818 8363 c7 -3 16 -2 19 1 4 3 -2 6 -13 5 -11 0 -14 -3 -6 -6z"/>
<path d="M9368 8363 c7 -3 16 -2 19 1 4 3 -2 6 -13 5 -11 0 -14 -3 -6 -6z"/>
<path d="M9718 7683 c6 -2 18 -2 25 0 6 3 1 5 -13 5 -14 0 -19 -2 -12 -5z"/>
<path d="M8528 7243 c7 -3 16 -2 19 1 4 3 -2 6 -13 5 -11 0 -14 -3 -6 -6z"/>
<path d="M10138 6843 c7 -3 16 -2 19 1 4 3 -2 6 -13 5 -11 0 -14 -3 -6 -6z"/>
<path d="M7548 6543 c7 -3 16 -2 19 1 4 3 -2 6 -13 5 -11 0 -14 -3 -6 -6z"/>
<path d="M9898 5633 c7 -3 16 -2 19 1 4 3 -2 6 -13 5 -11 0 -14 -3 -6 -6z"/>
<path d="M7258 5543 c7 -3 16 -2 19 1 4 3 -2 6 -13 5 -11 0 -14 -3 -6 -6z"/>
<path d="M9768 5493 c6 -2 18 -2 25 0 6 3 1 5 -13 5 -14 0 -19 -2 -12 -5z"/>
<path d="M7208 5423 c7 -3 16 -2 19 1 4 3 -2 6 -13 5 -11 0 -14 -3 -6 -6z"/>
<path d="M10578 5403 c12 -2 32 -2 45 0 12 2 2 4 -23 4 -25 0 -35 -2 -22 -4z"/>
<path d="M5808 4105 c-21 -14 -42 -34 -48 -45 -22 -42 -11 -61 95 -164 l105
-102 0 -50 c-1 -63 -23 -111 -113 -242 -95 -137 -103 -154 -170 -352 -104
-305 -133 -453 -104 -522 31 -75 99 -57 213 56 74 74 179 211 270 351 53 84
67 120 134 365 17 63 44 140 58 170 30 62 27 61 178 45 115 -12 174 19 174 91
0 23 -8 39 -26 53 -23 18 -39 20 -138 19 -121 -2 -195 15 -286 66 -63 35 -83
56 -146 152 -61 92 -104 134 -137 134 -12 0 -39 -11 -59 -25z"/>
<path d="M10118 4092 c-21 -15 -79 -71 -129 -125 -50 -54 -104 -104 -120 -112
-20 -11 -62 -15 -143 -15 -132 0 -258 -15 -298 -36 -21 -11 -28 -22 -28 -45 0
-82 47 -103 211 -93 155 9 181 -1 204 -83 3 -12 1 -49 -6 -82 -24 -124 8 -215
175 -486 51 -82 123 -208 161 -280 95 -180 125 -206 194 -170 50 25 56 59 32
182 -11 59 -27 171 -36 248 -16 145 -51 380 -68 450 -9 41 -45 80 -161 179
-60 50 -95 109 -96 157 0 36 29 69 121 140 104 79 129 126 93 177 -21 30 -60
28 -106 -6z"/>
<path d="M10210 3851 l-95 -88 20 -22 c26 -30 62 -22 182 37 l93 47 -46 58
c-25 31 -49 57 -52 57 -4 0 -50 -40 -102 -89z"/>
<path d="M5625 3883 c-14 -21 -25 -43 -25 -49 0 -18 129 -143 154 -150 33 -8
57 2 79 31 27 37 15 57 -66 119 -40 30 -79 61 -86 70 -19 23 -27 20 -56 -21z"/>
<path d="M7738 3813 c7 -3 16 -2 19 1 4 3 -2 6 -13 5 -11 0 -14 -3 -6 -6z"/>
<path d="M9463 3519 c4 -29 8 -53 10 -55 8 -8 218 -7 226 2 4 5 11 23 14 41
10 52 -16 63 -147 63 l-109 0 6 -51z"/>
<path d="M6315 3519 c-9 -13 -9 -74 -1 -88 13 -20 72 -28 155 -20 46 5 90 14
97 20 17 14 18 78 2 83 -35 11 -247 15 -253 5z"/>
<path d="M9245 3350 c-27 -4 -120 -33 -205 -65 -186 -68 -283 -100 -370 -121
-82 -21 -327 -32 -635 -29 -257 2 -297 7 -740 101 -66 14 -151 32 -190 40 -38
9 -117 26 -173 40 -110 25 -172 29 -237 14 -22 -5 -83 -13 -136 -19 -88 -10
-118 -9 -253 11 -16 3 -22 -9 -37 -78 -32 -147 -110 -300 -189 -369 -66 -58
-239 -308 -279 -403 -49 -117 -35 -216 42 -295 80 -82 149 -101 431 -117 281
-17 580 -72 890 -165 202 -60 593 -125 757 -125 164 0 498 61 739 136 200 61
234 66 490 69 564 7 880 109 946 307 21 64 15 177 -15 260 -27 77 -101 223
-169 333 -30 50 -68 116 -84 148 -16 32 -49 88 -73 124 -43 64 -60 118 -53
173 3 22 -1 25 -42 32 -59 9 -351 8 -415 -2z m-2364 -406 c86 -24 83 -22 61
-42 -15 -12 -30 -60 -56 -172 -19 -85 -49 -215 -66 -288 -24 -105 -28 -137
-19 -148 21 -26 2 -26 -95 -4 -94 22 -114 33 -78 42 15 4 29 52 75 254 32 137
57 251 57 254 0 3 -18 4 -41 2 -42 -4 -63 5 -51 24 7 10 141 93 153 94 3 0 30
-7 60 -16z m2299 -68 c103 -51 114 -187 19 -245 l-30 -18 38 -7 c83 -13 133
-72 133 -157 0 -117 -120 -201 -329 -231 -129 -18 -226 14 -279 92 -20 29 -23
44 -20 93 4 49 9 62 38 92 19 19 42 37 52 41 24 7 23 24 -2 24 -38 0 -79 30
-101 72 -64 125 56 241 276 266 94 11 151 5 205 -22z m-1689 -42 c72 -16 133
-50 163 -91 27 -36 33 -111 12 -152 -18 -35 -69 -71 -100 -71 -14 0 -5 -9 26
-29 77 -49 98 -121 59 -208 -38 -84 -169 -126 -325 -105 -213 28 -327 131
-286 259 20 61 64 98 134 112 l28 6 -38 25 c-46 30 -64 61 -64 116 0 45 28 94
70 126 53 39 179 44 321 12z m-1033 -39 c17 -14 33 -39 37 -55 7 -33 -15 -84
-44 -100 -51 -27 -123 1 -140 53 -14 42 -3 76 35 106 36 28 76 27 112 -4z
m1928 0 c41 -14 83 -25 94 -25 11 0 20 -2 20 -5 0 -2 -14 -34 -32 -70 -32 -65
-52 -80 -62 -47 -13 40 -140 80 -213 66 -52 -9 -107 -38 -131 -68 -19 -25 -49
-113 -40 -121 2 -2 27 7 54 20 28 13 82 29 120 36 176 29 324 -76 310 -219 -9
-99 -75 -166 -199 -204 -171 -51 -335 14 -400 161 -28 63 -34 181 -14 252 32
109 121 201 228 234 73 23 180 19 265 -10z m1245 -15 c29 -16 51 -67 44 -100
-8 -37 -58 -80 -94 -80 -35 0 -70 25 -85 62 -17 39 -10 72 21 103 28 27 78 34
114 15z"/>
<path d="M8917 2786 c-91 -25 -122 -82 -71 -133 24 -24 30 -25 101 -20 138 10
214 71 166 135 -18 24 -27 27 -84 29 -35 1 -86 -4 -112 -11z"/>
<path d="M8995 2530 c-104 -21 -145 -54 -145 -115 0 -84 81 -114 220 -80 85
21 130 57 130 105 0 84 -73 116 -205 90z"/>
<path d="M7282 2746 c-61 -28 -62 -100 -2 -131 39 -20 154 -34 199 -24 42 9
61 32 61 71 0 53 -49 80 -170 92 -38 4 -65 1 -88 -8z"/>
<path d="M7244 2484 c-35 -8 -68 -51 -68 -89 0 -62 49 -96 164 -114 113 -19
190 19 190 93 -1 42 -27 72 -80 91 -46 17 -167 27 -206 19z"/>
<path d="M8125 2465 c-52 -19 -75 -48 -75 -97 0 -54 14 -76 63 -99 140 -63
298 37 237 151 -27 51 -142 74 -225 45z"/>
</g>
</svg>
